<svg width="289" height="84" viewBox="0 0 289 84" fill="none" xmlns="http://www.w3.org/2000/svg">
<rect y="5" width="289" height="79" fill="#182352"/>
<path d="M74.9427 74.099C74.0967 74.099 73.4427 73.832 72.9807 73.298C72.5247 72.758 72.2967 72.02 72.2967 71.084C72.2967 70.148 72.5247 69.41 72.9807 68.87C73.4427 68.33 74.0967 68.06 74.9427 68.06C75.7947 68.06 76.4517 68.333 76.9137 68.879C77.3817 69.419 77.6157 70.154 77.6157 71.084C77.6157 72.014 77.3817 72.749 76.9137 73.289C76.4517 73.829 75.7947 74.099 74.9427 74.099ZM74.9427 73.46C75.4047 73.46 75.7347 73.274 75.9327 72.902C76.1367 72.524 76.2387 71.918 76.2387 71.084C76.2387 70.256 76.1367 69.653 75.9327 69.275C75.7287 68.897 75.3987 68.708 74.9427 68.708C74.4927 68.708 74.1657 68.897 73.9617 69.275C73.7637 69.653 73.6647 70.256 73.6647 71.084C73.6647 71.918 73.7637 72.524 73.9617 72.902C74.1597 73.274 74.4867 73.46 74.9427 73.46ZM79.6446 74L77.8896 68.15H79.2036L80.5896 73.091H80.6166L82.1196 68.15H82.9026L81.0216 74H79.6446ZM83.6871 74V68.15H87.1971V68.798H84.9291V70.724H86.9271V71.354H84.9291V73.352H87.3231V74H83.6871ZM88.4069 68.15H90.2069C90.8669 68.15 91.3829 68.312 91.7549 68.636C92.1269 68.954 92.3129 69.404 92.3129 69.986C92.3129 70.364 92.2199 70.694 92.0339 70.976C91.8479 71.252 91.6049 71.468 91.3049 71.624L92.6549 74H91.2239L90.1259 71.876H89.6489V74H88.4069V68.15ZM90.1079 71.282C90.3299 71.282 90.5009 71.246 90.6209 71.174C90.7469 71.096 90.8369 70.967 90.8909 70.787C90.9449 70.607 90.9719 70.358 90.9719 70.04C90.9719 69.572 90.9029 69.239 90.7649 69.041C90.6329 68.837 90.4049 68.735 90.0809 68.735H89.6489V71.282H90.1079ZM94.969 74.099C94.573 74.099 94.243 74.048 93.979 73.946C93.715 73.838 93.517 73.724 93.385 73.604C93.259 73.484 93.196 73.412 93.196 73.388L93.538 72.866C93.538 72.878 93.595 72.935 93.709 73.037C93.829 73.133 93.988 73.223 94.186 73.307C94.39 73.391 94.624 73.433 94.888 73.433C95.17 73.433 95.389 73.358 95.545 73.208C95.701 73.058 95.779 72.86 95.779 72.614C95.779 72.458 95.737 72.323 95.653 72.209C95.569 72.089 95.464 71.99 95.338 71.912C95.218 71.828 95.047 71.723 94.825 71.597C94.537 71.447 94.3 71.303 94.114 71.165C93.928 71.027 93.769 70.847 93.637 70.625C93.505 70.403 93.439 70.13 93.439 69.806C93.439 69.452 93.52 69.143 93.682 68.879C93.844 68.615 94.069 68.414 94.357 68.276C94.645 68.132 94.972 68.06 95.338 68.06C95.578 68.06 95.803 68.09 96.013 68.15C96.229 68.21 96.409 68.279 96.553 68.357C96.703 68.429 96.778 68.468 96.778 68.474L96.634 69.086C96.604 69.068 96.529 69.029 96.409 68.969C96.295 68.903 96.148 68.84 95.968 68.78C95.788 68.72 95.605 68.69 95.419 68.69C95.191 68.69 95.008 68.756 94.87 68.888C94.732 69.014 94.663 69.191 94.663 69.419C94.663 69.671 94.744 69.872 94.906 70.022C95.068 70.172 95.317 70.337 95.653 70.517C95.953 70.679 96.193 70.826 96.373 70.958C96.553 71.09 96.706 71.27 96.832 71.498C96.964 71.72 97.03 71.999 97.03 72.335C97.03 72.701 96.937 73.016 96.751 73.28C96.571 73.544 96.325 73.748 96.013 73.892C95.701 74.03 95.353 74.099 94.969 74.099ZM98.0397 74V68.15H101.55V68.798H99.2817V70.724H101.28V71.354H99.2817V73.352H101.676V74H98.0397ZM102.237 74L104.181 68.15H105.558L107.376 74H106.062L105.558 72.362H103.524L102.993 74H102.237ZM103.704 71.795H105.387L104.586 69.041H104.568L103.704 71.795ZM109.594 74.099C109.198 74.099 108.868 74.048 108.604 73.946C108.34 73.838 108.142 73.724 108.01 73.604C107.884 73.484 107.821 73.412 107.821 73.388L108.163 72.866C108.163 72.878 108.22 72.935 108.334 73.037C108.454 73.133 108.613 73.223 108.811 73.307C109.015 73.391 109.249 73.433 109.513 73.433C109.795 73.433 110.014 73.358 110.17 73.208C110.326 73.058 110.404 72.86 110.404 72.614C110.404 72.458 110.362 72.323 110.278 72.209C110.194 72.089 110.089 71.99 109.963 71.912C109.843 71.828 109.672 71.723 109.45 71.597C109.162 71.447 108.925 71.303 108.739 71.165C108.553 71.027 108.394 70.847 108.262 70.625C108.13 70.403 108.064 70.13 108.064 69.806C108.064 69.452 108.145 69.143 108.307 68.879C108.469 68.615 108.694 68.414 108.982 68.276C109.27 68.132 109.597 68.06 109.963 68.06C110.203 68.06 110.428 68.09 110.638 68.15C110.854 68.21 111.034 68.279 111.178 68.357C111.328 68.429 111.403 68.468 111.403 68.474L111.259 69.086C111.229 69.068 111.154 69.029 111.034 68.969C110.92 68.903 110.773 68.84 110.593 68.78C110.413 68.72 110.23 68.69 110.044 68.69C109.816 68.69 109.633 68.756 109.495 68.888C109.357 69.014 109.288 69.191 109.288 69.419C109.288 69.671 109.369 69.872 109.531 70.022C109.693 70.172 109.942 70.337 110.278 70.517C110.578 70.679 110.818 70.826 110.998 70.958C111.178 71.09 111.331 71.27 111.457 71.498C111.589 71.72 111.655 71.999 111.655 72.335C111.655 72.701 111.562 73.016 111.376 73.28C111.196 73.544 110.95 73.748 110.638 73.892C110.326 74.03 109.978 74.099 109.594 74.099ZM114.959 74V68.15H118.469V68.798H116.201V70.724H118.199V71.354H116.201V73.352H118.595V74H114.959ZM119.678 68.15H121.667C122.573 68.15 123.269 68.402 123.755 68.906C124.247 69.404 124.493 70.133 124.493 71.093C124.493 72.041 124.253 72.764 123.773 73.262C123.293 73.754 122.594 74 121.676 74H119.678V68.15ZM121.685 73.361C122.033 73.361 122.309 73.289 122.513 73.145C122.723 72.995 122.876 72.758 122.972 72.434C123.068 72.104 123.116 71.657 123.116 71.093C123.116 70.529 123.065 70.079 122.963 69.743C122.867 69.407 122.714 69.164 122.504 69.014C122.294 68.864 122.015 68.789 121.667 68.789H120.92V73.361H121.685ZM127.576 74.099C126.868 74.099 126.331 73.904 125.965 73.514C125.605 73.124 125.425 72.578 125.425 71.876V68.15H126.676V71.597C126.676 72.245 126.763 72.71 126.937 72.992C127.117 73.274 127.396 73.415 127.774 73.415C128.176 73.415 128.473 73.268 128.665 72.974C128.857 72.68 128.953 72.221 128.953 71.597V68.15H129.718V71.876C129.718 72.584 129.55 73.133 129.214 73.523C128.878 73.907 128.332 74.099 127.576 74.099ZM133.374 74.099C132.492 74.099 131.82 73.835 131.358 73.307C130.896 72.773 130.665 72.044 130.665 71.12C130.665 70.508 130.77 69.971 130.98 69.509C131.19 69.047 131.496 68.69 131.898 68.438C132.3 68.186 132.777 68.06 133.329 68.06C133.605 68.06 133.875 68.096 134.139 68.168C134.409 68.234 134.64 68.309 134.832 68.393C135.03 68.471 135.129 68.513 135.129 68.519L135.003 69.176C134.961 69.152 134.859 69.107 134.697 69.041C134.535 68.969 134.34 68.9 134.112 68.834C133.89 68.768 133.68 68.735 133.482 68.735C133.146 68.735 132.873 68.81 132.663 68.96C132.453 69.11 132.294 69.356 132.186 69.698C132.084 70.04 132.033 70.499 132.033 71.075C132.033 71.921 132.156 72.524 132.402 72.884C132.648 73.244 133.029 73.424 133.545 73.424C133.833 73.424 134.085 73.364 134.301 73.244C134.523 73.118 134.7 72.983 134.832 72.839C134.97 72.689 135.039 72.605 135.039 72.587L135.435 73.019C135.435 73.049 135.354 73.157 135.192 73.343C135.036 73.529 134.805 73.703 134.499 73.865C134.193 74.021 133.818 74.099 133.374 74.099ZM135.697 74L137.641 68.15H139.018L140.836 74H139.522L139.018 72.362H136.984L136.453 74H135.697ZM137.164 71.795H138.847L138.046 69.041H138.028L137.164 71.795ZM142.167 74V68.798H140.592V68.15H144.984V68.798H143.418V74H142.167ZM145.799 74V68.15H147.041V74H145.799ZM150.713 74.099C149.867 74.099 149.213 73.832 148.751 73.298C148.295 72.758 148.067 72.02 148.067 71.084C148.067 70.148 148.295 69.41 148.751 68.87C149.213 68.33 149.867 68.06 150.713 68.06C151.565 68.06 152.222 68.333 152.684 68.879C153.152 69.419 153.386 70.154 153.386 71.084C153.386 72.014 153.152 72.749 152.684 73.289C152.222 73.829 151.565 74.099 150.713 74.099ZM150.713 73.46C151.175 73.46 151.505 73.274 151.703 72.902C151.907 72.524 152.009 71.918 152.009 71.084C152.009 70.256 151.907 69.653 151.703 69.275C151.499 68.897 151.169 68.708 150.713 68.708C150.263 68.708 149.936 68.897 149.732 69.275C149.534 69.653 149.435 70.256 149.435 71.084C149.435 71.918 149.534 72.524 149.732 72.902C149.93 73.274 150.257 73.46 150.713 73.46ZM154.404 74V68.15H155.691L158.148 72.119H158.166L158.103 71.714V68.15H158.877V74H157.905L155.124 69.608H155.106L155.178 70.13V74H154.404ZM164.9 74.099C164.018 74.099 163.346 73.835 162.884 73.307C162.422 72.773 162.191 72.044 162.191 71.12C162.191 70.508 162.296 69.971 162.506 69.509C162.716 69.047 163.022 68.69 163.424 68.438C163.826 68.186 164.303 68.06 164.855 68.06C165.131 68.06 165.401 68.096 165.665 68.168C165.935 68.234 166.166 68.309 166.358 68.393C166.556 68.471 166.655 68.513 166.655 68.519L166.529 69.176C166.487 69.152 166.385 69.107 166.223 69.041C166.061 68.969 165.866 68.9 165.638 68.834C165.416 68.768 165.206 68.735 165.008 68.735C164.672 68.735 164.399 68.81 164.189 68.96C163.979 69.11 163.82 69.356 163.712 69.698C163.61 70.04 163.559 70.499 163.559 71.075C163.559 71.921 163.682 72.524 163.928 72.884C164.174 73.244 164.555 73.424 165.071 73.424C165.359 73.424 165.611 73.364 165.827 73.244C166.049 73.118 166.226 72.983 166.358 72.839C166.496 72.689 166.565 72.605 166.565 72.587L166.961 73.019C166.961 73.049 166.88 73.157 166.718 73.343C166.562 73.529 166.331 73.703 166.025 73.865C165.719 74.021 165.344 74.099 164.9 74.099ZM170.023 74.099C169.177 74.099 168.523 73.832 168.061 73.298C167.605 72.758 167.377 72.02 167.377 71.084C167.377 70.148 167.605 69.41 168.061 68.87C168.523 68.33 169.177 68.06 170.023 68.06C170.875 68.06 171.532 68.333 171.994 68.879C172.462 69.419 172.696 70.154 172.696 71.084C172.696 72.014 172.462 72.749 171.994 73.289C171.532 73.829 170.875 74.099 170.023 74.099ZM170.023 73.46C170.485 73.46 170.815 73.274 171.013 72.902C171.217 72.524 171.319 71.918 171.319 71.084C171.319 70.256 171.217 69.653 171.013 69.275C170.809 68.897 170.479 68.708 170.023 68.708C169.573 68.708 169.246 68.897 169.042 69.275C168.844 69.653 168.745 70.256 168.745 71.084C168.745 71.918 168.844 72.524 169.042 72.902C169.24 73.274 169.567 73.46 170.023 73.46ZM173.714 74V68.15H175.001L177.458 72.119H177.476L177.413 71.714V68.15H178.187V74H177.215L174.434 69.608H174.416L174.488 70.13V74H173.714ZM180.935 74.099C180.539 74.099 180.209 74.048 179.945 73.946C179.681 73.838 179.483 73.724 179.351 73.604C179.225 73.484 179.162 73.412 179.162 73.388L179.504 72.866C179.504 72.878 179.561 72.935 179.675 73.037C179.795 73.133 179.954 73.223 180.152 73.307C180.356 73.391 180.59 73.433 180.854 73.433C181.136 73.433 181.355 73.358 181.511 73.208C181.667 73.058 181.745 72.86 181.745 72.614C181.745 72.458 181.703 72.323 181.619 72.209C181.535 72.089 181.43 71.99 181.304 71.912C181.184 71.828 181.013 71.723 180.791 71.597C180.503 71.447 180.266 71.303 180.08 71.165C179.894 71.027 179.735 70.847 179.603 70.625C179.471 70.403 179.405 70.13 179.405 69.806C179.405 69.452 179.486 69.143 179.648 68.879C179.81 68.615 180.035 68.414 180.323 68.276C180.611 68.132 180.938 68.06 181.304 68.06C181.544 68.06 181.769 68.09 181.979 68.15C182.195 68.21 182.375 68.279 182.519 68.357C182.669 68.429 182.744 68.468 182.744 68.474L182.6 69.086C182.57 69.068 182.495 69.029 182.375 68.969C182.261 68.903 182.114 68.84 181.934 68.78C181.754 68.72 181.571 68.69 181.385 68.69C181.157 68.69 180.974 68.756 180.836 68.888C180.698 69.014 180.629 69.191 180.629 69.419C180.629 69.671 180.71 69.872 180.872 70.022C181.034 70.172 181.283 70.337 181.619 70.517C181.919 70.679 182.159 70.826 182.339 70.958C182.519 71.09 182.672 71.27 182.798 71.498C182.93 71.72 182.996 71.999 182.996 72.335C182.996 72.701 182.903 73.016 182.717 73.28C182.537 73.544 182.291 73.748 181.979 73.892C181.667 74.03 181.319 74.099 180.935 74.099ZM186.076 74.099C185.368 74.099 184.831 73.904 184.465 73.514C184.105 73.124 183.925 72.578 183.925 71.876V68.15H185.176V71.597C185.176 72.245 185.263 72.71 185.437 72.992C185.617 73.274 185.896 73.415 186.274 73.415C186.676 73.415 186.973 73.268 187.165 72.974C187.357 72.68 187.453 72.221 187.453 71.597V68.15H188.218V71.876C188.218 72.584 188.05 73.133 187.714 73.523C187.378 73.907 186.832 74.099 186.076 74.099ZM189.534 74V68.15H190.776V73.352H193.044V74H189.534ZM194.216 74V68.798H192.641V68.15H197.033V68.798H195.467V74H194.216ZM196.79 74L198.734 68.15H200.111L201.929 74H200.615L200.111 72.362H198.077L197.546 74H196.79ZM198.257 71.795H199.94L199.139 69.041H199.121L198.257 71.795ZM202.788 74V68.15H204.075L206.532 72.119H206.55L206.487 71.714V68.15H207.261V74H206.289L203.508 69.608H203.49L203.562 70.13V74H202.788ZM209.658 74V68.798H208.083V68.15H212.475V68.798H210.909V74H209.658ZM214.65 74.099C214.254 74.099 213.924 74.048 213.66 73.946C213.396 73.838 213.198 73.724 213.066 73.604C212.94 73.484 212.877 73.412 212.877 73.388L213.219 72.866C213.219 72.878 213.276 72.935 213.39 73.037C213.51 73.133 213.669 73.223 213.867 73.307C214.071 73.391 214.305 73.433 214.569 73.433C214.851 73.433 215.07 73.358 215.226 73.208C215.382 73.058 215.46 72.86 215.46 72.614C215.46 72.458 215.418 72.323 215.334 72.209C215.25 72.089 215.145 71.99 215.019 71.912C214.899 71.828 214.728 71.723 214.506 71.597C214.218 71.447 213.981 71.303 213.795 71.165C213.609 71.027 213.45 70.847 213.318 70.625C213.186 70.403 213.12 70.13 213.12 69.806C213.12 69.452 213.201 69.143 213.363 68.879C213.525 68.615 213.75 68.414 214.038 68.276C214.326 68.132 214.653 68.06 215.019 68.06C215.259 68.06 215.484 68.09 215.694 68.15C215.91 68.21 216.09 68.279 216.234 68.357C216.384 68.429 216.459 68.468 216.459 68.474L216.315 69.086C216.285 69.068 216.21 69.029 216.09 68.969C215.976 68.903 215.829 68.84 215.649 68.78C215.469 68.72 215.286 68.69 215.1 68.69C214.872 68.69 214.689 68.756 214.551 68.888C214.413 69.014 214.344 69.191 214.344 69.419C214.344 69.671 214.425 69.872 214.587 70.022C214.749 70.172 214.998 70.337 215.334 70.517C215.634 70.679 215.874 70.826 216.054 70.958C216.234 71.09 216.387 71.27 216.513 71.498C216.645 71.72 216.711 71.999 216.711 72.335C216.711 72.701 216.618 73.016 216.432 73.28C216.252 73.544 216.006 73.748 215.694 73.892C215.382 74.03 215.034 74.099 214.65 74.099Z" fill="white"/>
<path d="M44.8013 56.3076C43.5298 56.1436 42.6069 56.041 42.0327 56C41.4995 56 40.9458 56 40.3716 56H19.269L19.146 54.0312L22.8374 53.2314C22.8784 53.0264 22.8989 52.5957 22.8989 51.9395C22.9399 51.2422 22.9604 50.2783 22.9604 49.0479C23.0015 47.7764 23.022 46.2178 23.022 44.3721V31.5752C23.022 29.6885 23.0015 28.1094 22.9604 26.8379C22.9604 25.5664 22.9399 24.6025 22.8989 23.9463C22.8989 23.249 22.8784 22.8184 22.8374 22.6543L19.146 21.8545L19.269 19.8857H39.4487C39.8999 19.8857 40.3101 19.8857 40.6792 19.8857C41.0483 19.8857 41.479 19.8652 41.9712 19.8242C42.5044 19.7832 43.2017 19.7217 44.063 19.6396L45.1089 27.3301L42.7095 27.6992L40.7407 22.6543C40.5356 22.6133 40.228 22.5928 39.8179 22.5928C39.4487 22.5518 39.0386 22.5312 38.5874 22.5312H30.4663C29.687 22.5312 29.0308 22.5518 28.4976 22.5928C27.9644 22.5928 27.4106 22.6338 26.8364 22.7158C26.8364 22.8389 26.8159 23.29 26.7749 24.0693C26.7749 24.8486 26.7544 25.7305 26.7134 26.7148C26.7134 27.6992 26.7134 28.5811 26.7134 29.3604V47.7559C26.7134 48.3301 26.7134 49.0068 26.7134 49.7861C26.7544 50.5244 26.7749 51.2012 26.7749 51.8164C26.8159 52.4316 26.8364 52.8418 26.8364 53.0469C27.3286 53.0879 27.8413 53.1289 28.3745 53.1699C28.9077 53.2109 29.4614 53.2314 30.0356 53.2314H37.2954C38.1157 53.2314 38.813 53.2314 39.3872 53.2314C40.0024 53.1904 40.4946 53.1494 40.8638 53.1084C41.2329 53.0674 41.4995 53.0264 41.6636 52.9854L44.8013 47.2637L47.1392 47.7559L44.8013 56.3076ZM38.4644 43.2646L37.6646 39.0195C37.4595 38.9375 37.1313 38.876 36.6802 38.835C36.27 38.7939 35.7573 38.7734 35.1421 38.7734H29.7896C29.3384 38.7734 28.7847 38.7939 28.1284 38.835C27.5132 38.835 26.7954 38.8555 25.9751 38.8965V36.0049C26.7954 36.0459 27.5132 36.0664 28.1284 36.0664C28.7847 36.0664 29.3384 36.0664 29.7896 36.0664H35.1421C35.7573 36.0664 36.27 36.0664 36.6802 36.0664C37.1313 36.0254 37.4595 35.9639 37.6646 35.8818L38.4644 31.5137H40.6792V43.2646H38.4644ZM80.1157 48.5557V32.5596C80.1157 29.9346 80.0952 27.9453 80.0542 26.5918C80.0132 25.1973 79.9722 24.2129 79.9312 23.6387C79.8901 23.0645 79.8491 22.7363 79.8081 22.6543L75.686 21.8545L75.8091 19.8857H86.8833L87.0063 21.8545L83.3149 22.6543C83.3149 22.7363 83.2739 23.0645 83.1919 23.6387C83.1509 24.2129 83.1099 25.1973 83.0688 26.5918C83.0278 27.9863 83.0073 29.9756 83.0073 32.5596V48.6172C83.0073 49.6426 83.0073 50.8115 83.0073 52.124C83.0073 53.4365 83.0278 54.8105 83.0688 56.2461H80.854L59.1362 24.8076H59.5669V43.4492C59.5669 45.9922 59.5874 47.9609 59.6284 49.3555C59.7104 50.709 59.772 51.6729 59.813 52.2471C59.895 52.7803 59.936 53.1084 59.936 53.2314L64.0581 54.0312L63.9351 56H52.7378L52.6147 54.0312L56.3062 53.2314C56.3472 53.1084 56.3882 52.8008 56.4292 52.3086C56.4702 51.7754 56.5112 50.832 56.5522 49.4785C56.5933 48.084 56.6138 46.0742 56.6138 43.4492V31.7598C56.6138 29.5859 56.5933 27.9043 56.5522 26.7148C56.5522 25.5254 56.5317 24.6436 56.4907 24.0693C56.4497 23.4541 56.3882 22.9824 56.3062 22.6543L52.6147 21.8545L52.7378 19.8857H60.5513L80.5464 48.5557H80.1157ZM106.755 56.1846L93.7124 22.6543L90.6362 21.916L90.7593 19.8857H101.833L101.957 21.8545L98.2651 22.6543L109.032 50.8936H108.417L118.629 22.6543L114.323 21.8545L114.446 19.8857H125.151L125.274 21.916L122.198 22.6543L108.97 56.1846H106.755ZM129.027 56L128.904 54.0312L132.595 53.2314C132.636 53.0264 132.657 52.5957 132.657 51.9395C132.698 51.2422 132.718 50.2783 132.718 49.0479C132.759 47.8174 132.78 46.2588 132.78 44.3721V31.5752C132.78 29.6475 132.759 28.0684 132.718 26.8379C132.718 25.5664 132.698 24.6025 132.657 23.9463C132.657 23.249 132.636 22.8184 132.595 22.6543L128.904 21.8545L129.027 19.8857H140.409L140.532 21.8545L136.84 22.6543C136.799 22.7773 136.738 23.126 136.656 23.7002C136.615 24.2744 136.574 25.1768 136.533 26.4072C136.533 27.6377 136.533 29.3604 136.533 31.5752V44.3721C136.533 46.5049 136.533 48.207 136.533 49.4785C136.574 50.709 136.615 51.6113 136.656 52.1855C136.738 52.7188 136.799 53.0674 136.84 53.2314L140.532 54.0312L140.409 56H129.027ZM157.389 56.5537C155.584 56.5537 153.759 56.3486 151.914 55.9385C150.109 55.4873 148.673 54.9541 147.607 54.3389L147.238 46.9561L149.268 46.71L150.806 51.7549C151.873 52.4111 153.021 52.9443 154.251 53.3545C155.482 53.7236 156.856 53.9082 158.374 53.9082C160.465 53.9082 162.188 53.375 163.542 52.3086C164.895 51.2422 165.572 49.7656 165.572 47.8789C165.572 46.4023 165.121 45.1719 164.218 44.1875C163.357 43.2031 162.229 42.3418 160.834 41.6035C159.481 40.8242 158.025 40.0859 156.466 39.3887C154.949 38.6504 153.493 37.8301 152.098 36.9277C150.745 36.0254 149.617 34.9385 148.714 33.667C147.853 32.3955 147.422 30.8164 147.422 28.9297C147.422 27.043 147.935 25.3818 148.96 23.9463C150.027 22.4697 151.462 21.3213 153.267 20.501C155.113 19.6807 157.205 19.2705 159.542 19.2705C160.691 19.2705 161.737 19.332 162.68 19.4551C163.624 19.5371 164.485 19.6807 165.264 19.8857C166.084 20.0908 166.823 20.3369 167.479 20.624L167.848 27.6377L165.818 27.8838L164.218 23.1465C162.947 22.2441 161.163 21.793 158.866 21.793C156.61 21.793 154.805 22.3467 153.452 23.4541C152.098 24.5615 151.421 25.9766 151.421 27.6992C151.421 29.2168 151.852 30.5088 152.713 31.5752C153.616 32.6416 154.744 33.5645 156.097 34.3438C157.492 35.123 158.968 35.8818 160.527 36.6201C162.085 37.3174 163.542 38.1172 164.895 39.0195C166.29 39.8809 167.417 40.9268 168.279 42.1572C169.181 43.3877 169.632 44.9053 169.632 46.71C169.632 48.5967 169.099 50.2783 168.033 51.7549C166.966 53.2314 165.51 54.4004 163.665 55.2617C161.819 56.123 159.727 56.5537 157.389 56.5537ZM175.846 56L175.723 54.0312L179.415 53.2314C179.456 53.0264 179.476 52.5957 179.476 51.9395C179.517 51.2422 179.538 50.2783 179.538 49.0479C179.579 47.8174 179.599 46.2588 179.599 44.3721V31.5752C179.599 29.6475 179.579 28.0684 179.538 26.8379C179.538 25.5664 179.517 24.6025 179.476 23.9463C179.476 23.249 179.456 22.8184 179.415 22.6543L175.723 21.8545L175.846 19.8857H187.228L187.351 21.8545L183.66 22.6543C183.619 22.7773 183.557 23.126 183.475 23.7002C183.434 24.2744 183.393 25.1768 183.352 26.4072C183.352 27.6377 183.352 29.3604 183.352 31.5752V44.3721C183.352 46.5049 183.352 48.207 183.352 49.4785C183.393 50.709 183.434 51.6113 183.475 52.1855C183.557 52.7188 183.619 53.0674 183.66 53.2314L187.351 54.0312L187.228 56H175.846ZM211.714 56.5537C208.228 56.5537 205.152 55.7744 202.486 54.2158C199.82 52.6572 197.728 50.4834 196.21 47.6943C194.693 44.8643 193.934 41.624 193.934 37.9736C193.934 34.4053 194.713 31.2266 196.272 28.4375C197.831 25.6074 199.963 23.3926 202.67 21.793C205.418 20.1523 208.515 19.332 211.96 19.332C215.283 19.332 218.215 20.1113 220.758 21.6699C223.301 23.2285 225.291 25.4023 226.726 28.1914C228.162 30.9395 228.879 34.1387 228.879 37.7891C228.879 40.332 228.449 42.7314 227.587 44.9873C226.767 47.2432 225.598 49.2529 224.081 51.0166C222.563 52.7393 220.758 54.0928 218.667 55.0771C216.575 56.0615 214.257 56.5537 211.714 56.5537ZM212.391 53.8467C214.77 53.8467 216.841 53.252 218.605 52.0625C220.41 50.832 221.804 49.1094 222.789 46.8945C223.814 44.6797 224.327 42.1162 224.327 39.2041C224.327 35.7998 223.773 32.8057 222.666 30.2217C221.558 27.6377 220.02 25.6074 218.051 24.1309C216.083 22.6543 213.806 21.916 211.222 21.916C207.367 21.916 204.311 23.29 202.055 26.0381C199.84 28.7451 198.733 32.4365 198.733 37.1123C198.733 40.3525 199.307 43.2441 200.456 45.7871C201.645 48.2891 203.265 50.2578 205.316 51.6934C207.408 53.1289 209.766 53.8467 212.391 53.8467ZM263.025 48.5557V32.5596C263.025 29.9346 263.004 27.9453 262.963 26.5918C262.922 25.1973 262.881 24.2129 262.84 23.6387C262.799 23.0645 262.758 22.7363 262.717 22.6543L258.595 21.8545L258.718 19.8857H269.792L269.916 21.8545L266.224 22.6543C266.224 22.7363 266.183 23.0645 266.101 23.6387C266.06 24.2129 266.019 25.1973 265.978 26.5918C265.937 27.9863 265.917 29.9756 265.917 32.5596V48.6172C265.917 49.6426 265.917 50.8115 265.917 52.124C265.917 53.4365 265.937 54.8105 265.978 56.2461H263.763L242.045 24.8076H242.476V43.4492C242.476 45.9922 242.497 47.9609 242.538 49.3555C242.62 50.709 242.681 51.6729 242.722 52.2471C242.804 52.7803 242.845 53.1084 242.845 53.2314L246.967 54.0312L246.844 56H235.647L235.524 54.0312L239.215 53.2314C239.256 53.1084 239.297 52.8008 239.338 52.3086C239.379 51.7754 239.42 50.832 239.461 49.4785C239.502 48.084 239.523 46.0742 239.523 43.4492V31.7598C239.523 29.5859 239.502 27.9043 239.461 26.7148C239.461 25.5254 239.441 24.6436 239.4 24.0693C239.359 23.4541 239.297 22.9824 239.215 22.6543L235.524 21.8545L235.647 19.8857H243.46L263.456 48.5557H263.025Z" fill="#FDF144"/>
</svg>
