<svg width="336" height="212" viewBox="0 0 336 212" fill="none" xmlns="http://www.w3.org/2000/svg">
<rect y="64" width="336" height="68" fill="#000435"/>
<path d="M14.4453 117.832L8.25331 119.848V121H43.1013V109.192H42.0213L39.2133 117.976H20.3493V96.448H32.0133L34.5333 102.712H35.6133V87.16H34.4613L32.0133 93.424H20.3493V73.624H38.7813L40.7253 81.76H41.8773L42.9573 70.6H8.25331V71.752L14.4453 73.768V117.832ZM90.344 121.72L90.848 73.768L97.04 71.752V70.6H80.768V71.824L86.888 73.768L86.672 108.904L61.544 70.6H50.096V71.752L56.288 73.768L55.712 117.832L49.592 119.848V121H65.792V119.776L59.672 117.832L59.96 79.24L88.76 121.72H90.344ZM121.638 121.72H122.934L138.702 73.84L144.75 71.752V70.6H129.558V71.824L135.174 73.84L123.51 110.992L111.414 73.696L117.246 71.824V70.6H99.1736V71.752L105.222 73.84L121.638 121.72ZM154.086 117.832L147.894 119.848V121H166.11V119.848L159.99 117.832V73.768L166.11 71.752V70.6H147.894V71.752L154.086 73.768V117.832ZM197.432 109.768C197.432 115.24 193.904 118.552 186.416 118.552C183.104 118.552 179.792 117.976 177.056 116.68L175.184 107.176H174.176L172.52 118.192C175.904 120.568 181.664 121.72 186.632 121.72C196.136 121.72 202.832 117.328 202.832 108.616C202.832 100.48 199.016 97.888 188.576 92.344C181.52 88.528 179 85.936 179 81.616C179 75.784 182.384 73.048 188.648 73.048C191.6 73.048 194.192 73.624 196.568 74.56L198.872 82.696H199.736L200.744 72.904C198.44 71.32 193.616 69.88 188.36 69.88C179.792 69.88 173.672 73.84 173.672 82.696C173.672 89.752 177.92 93.28 184.904 96.808C194.552 101.632 197.432 104.656 197.432 109.768ZM215.188 117.832L208.996 119.848V121H227.212V119.848L221.092 117.832V73.768L227.212 71.752V70.6H208.996V71.752L215.188 73.768V117.832ZM255.162 69.952C241.554 69.952 233.346 80.032 233.346 95.8C233.346 112.288 242.058 121.72 254.73 121.72C267.474 121.72 276.186 112.144 276.186 95.08C276.186 79.888 267.618 69.952 255.162 69.952ZM254.658 72.976C264.306 72.976 269.49 82.768 269.49 95.8C269.49 108.544 264.738 118.768 255.162 118.768C245.154 118.768 240.042 107.896 240.042 95.008C240.042 82.696 244.65 72.976 254.658 72.976ZM322.797 121.72L323.301 73.768L329.493 71.752V70.6H313.221V71.824L319.341 73.768L319.125 108.904L293.997 70.6H282.549V71.752L288.741 73.768L288.165 117.832L282.045 119.848V121H298.245V119.776L292.125 117.832L292.413 79.24L321.213 121.72H322.797Z" fill="#F9EF2B"/>
</svg>
