<svg width="374" height="84" viewBox="0 0 374 84" fill="none" xmlns="http://www.w3.org/2000/svg">
<rect x="19" y="8" width="336" height="68" fill="#000435"/>
<path d="M32.9453 62.832L26.7533 64.848V66H61.6013V54.192H60.5213L57.7133 62.976H38.8493V41.448H50.5133L53.0333 47.712H54.1133V32.16H52.9613L50.5133 38.424H38.8493V18.624H57.2813L59.2253 26.76H60.3773L61.4573 15.6H26.7533V16.752L32.9453 18.768V62.832ZM108.844 66.72L109.348 18.768L115.54 16.752V15.6H99.268V16.824L105.388 18.768L105.172 53.904L80.044 15.6H68.596V16.752L74.788 18.768L74.212 62.832L68.092 64.848V66H84.292V64.776L78.172 62.832L78.46 24.24L107.26 66.72H108.844ZM140.138 66.72H141.434L157.202 18.84L163.25 16.752V15.6H148.058V16.824L153.674 18.84L142.01 55.992L129.914 18.696L135.746 16.824V15.6H117.674V16.752L123.722 18.84L140.138 66.72ZM172.586 62.832L166.394 64.848V66H184.61V64.848L178.49 62.832V18.768L184.61 16.752V15.6H166.394V16.752L172.586 18.768V62.832ZM215.932 54.768C215.932 60.24 212.404 63.552 204.916 63.552C201.604 63.552 198.292 62.976 195.556 61.68L193.684 52.176H192.676L191.02 63.192C194.404 65.568 200.164 66.72 205.132 66.72C214.636 66.72 221.332 62.328 221.332 53.616C221.332 45.48 217.516 42.888 207.076 37.344C200.02 33.528 197.5 30.936 197.5 26.616C197.5 20.784 200.884 18.048 207.148 18.048C210.1 18.048 212.692 18.624 215.068 19.56L217.372 27.696H218.236L219.244 17.904C216.94 16.32 212.116 14.88 206.86 14.88C198.292 14.88 192.172 18.84 192.172 27.696C192.172 34.752 196.42 38.28 203.404 41.808C213.052 46.632 215.932 49.656 215.932 54.768ZM233.688 62.832L227.496 64.848V66H245.712V64.848L239.592 62.832V18.768L245.712 16.752V15.6H227.496V16.752L233.688 18.768V62.832ZM273.662 14.952C260.054 14.952 251.846 25.032 251.846 40.8C251.846 57.288 260.558 66.72 273.23 66.72C285.974 66.72 294.686 57.144 294.686 40.08C294.686 24.888 286.118 14.952 273.662 14.952ZM273.158 17.976C282.806 17.976 287.99 27.768 287.99 40.8C287.99 53.544 283.238 63.768 273.662 63.768C263.654 63.768 258.542 52.896 258.542 40.008C258.542 27.696 263.15 17.976 273.158 17.976ZM341.297 66.72L341.801 18.768L347.993 16.752V15.6H331.721V16.824L337.841 18.768L337.625 53.904L312.497 15.6H301.049V16.752L307.241 18.768L306.665 62.832L300.545 64.848V66H316.745V64.776L310.625 62.832L310.913 24.24L339.713 66.72H341.297Z" fill="#FBF430"/>
</svg>
